<?xml version="1.0" encoding="utf-8"?>
<!-- Generator: Adobe Illustrator 16.0.4, SVG Export Plug-In . SVG Version: 6.00 Build 0)  -->
<!DOCTYPE svg PUBLIC "-//W3C//DTD SVG 1.1//EN" "http://www.w3.org/Graphics/SVG/1.1/DTD/svg11.dtd">
<svg version="1.1" id="Ebene_1" xmlns:ev="http://www.w3.org/2001/xml-events"
	 xmlns="http://www.w3.org/2000/svg" xmlns:xlink="http://www.w3.org/1999/xlink" x="0px" y="0px" width="29px" height="34px"
	 viewBox="0 0 29 34" enable-background="new 0 0 29 34" xml:space="preserve">
<path fill="#FFE958" d="M11.054,0c0.92,2.022,1.445,4.26,1.445,6.624c0,7.624-5.338,13.997-12.499,15.665
	c2.374,2.312,5.621,3.74,9.207,3.74c7.273,0,13.169-5.859,13.169-13.086C22.376,6.34,17.449,0.894,11.054,0z"/>
<linearGradient id="SVGID_1_" gradientUnits="userSpaceOnUse" x1="1.709" y1="25.709" x2="28.9883" y2="25.709">
	<stop  offset="0" style="stop-color:#CBCBCB"/>
	<stop  offset="0.4852" style="stop-color:#D8D8D8"/>
	<stop  offset="1" style="stop-color:#E1E1E1"/>
</linearGradient>
<path fill="url(#SVGID_1_)" d="M23.246,20.309c-0.621,0-1.214,0.102-1.773,0.282c-1.512-1.924-3.851-3.164-6.482-3.164
	c-2.504,0-4.746,1.124-6.258,2.892c-0.07-0.002-0.137-0.01-0.208-0.01c-3.764,0-6.815,2.899-6.815,6.478s3.051,6.478,6.815,6.478
	c0.819,0,1.601-0.145,2.328-0.396c1.217,0.711,2.627,1.124,4.138,1.124c2.371,0,4.505-1.011,6.012-2.618
	c0.689,0.295,1.447,0.458,2.244,0.458c3.174,0,5.742-2.579,5.742-5.761C28.988,22.887,26.42,20.309,23.246,20.309z"/>
</svg>
