<?xml version="1.0" encoding="utf-8"?>
<!-- Generator: Adobe Illustrator 16.0.4, SVG Export Plug-In . SVG Version: 6.00 Build 0)  -->
<!DOCTYPE svg PUBLIC "-//W3C//DTD SVG 1.1//EN" "http://www.w3.org/Graphics/SVG/1.1/DTD/svg11.dtd">
<svg version="1.1" id="Ebene_1" xmlns:ev="http://www.w3.org/2001/xml-events"
	 xmlns="http://www.w3.org/2000/svg" xmlns:xlink="http://www.w3.org/1999/xlink" x="0px" y="0px" width="38px" height="29px"
	 viewBox="0 0 38 29" enable-background="new 0 0 38 29" xml:space="preserve">
<linearGradient id="SVGID_1_" gradientUnits="userSpaceOnUse" x1="14.2104" y1="5.6919" x2="14.2104" y2="6.6919" gradientTransform="matrix(27.228 0 0 -16.702 -363.5168 111.762)">
	<stop  offset="0" style="stop-color:#989898"/>
	<stop  offset="0.0953" style="stop-color:#9D9D9D"/>
	<stop  offset="0.6555" style="stop-color:#B5B5B5"/>
	<stop  offset="1" style="stop-color:#BEBEBE"/>
</linearGradient>
<path fill="url(#SVGID_1_)" d="M31.281,2.905c-0.619,0-1.211,0.102-1.77,0.285C28.003,1.249,25.668,0,23.041,0
	c-2.499,0-4.736,1.133-6.246,2.914c-0.069-0.002-0.137-0.009-0.207-0.009c-3.757,0-6.802,2.924-6.802,6.532
	c0,3.607,3.045,6.532,6.802,6.532c0.817,0,1.598-0.146,2.323-0.4c1.215,0.717,2.622,1.134,4.13,1.134
	c2.368,0,4.497-1.019,6.001-2.639c0.687,0.297,1.444,0.461,2.239,0.461c3.168,0,5.732-2.601,5.732-5.81S34.449,2.905,31.281,2.905z"
	/>
<linearGradient id="SVGID_2_" gradientUnits="userSpaceOnUse" x1="11.3159" y1="12.5825" x2="11.3159" y2="13.5825" gradientTransform="matrix(38 0 0 -23.309 -411 322.2509)">
	<stop  offset="0" style="stop-color:#989898"/>
	<stop  offset="0.0953" style="stop-color:#9D9D9D"/>
	<stop  offset="0.6555" style="stop-color:#B5B5B5"/>
	<stop  offset="1" style="stop-color:#BEBEBE"/>
</linearGradient>
<path fill="url(#SVGID_2_)" d="M30,9.718c-0.863,0-1.691,0.142-2.471,0.398c-2.105-2.708-5.363-4.452-9.029-4.452
	c-3.489,0-6.609,1.582-8.718,4.068C9.685,9.73,9.591,9.718,9.494,9.718C4.25,9.718,0,13.799,0,18.833s4.25,9.116,9.494,9.116
	c1.14,0,2.228-0.203,3.241-0.557c1.697,0.998,3.662,1.58,5.765,1.58c3.307,0,6.275-1.421,8.374-3.684
	c0.96,0.414,2.017,0.645,3.126,0.645c4.419,0,8-3.631,8-8.108C38,13.348,34.419,9.718,30,9.718z"/>
</svg>
