<?xml version="1.0" encoding="utf-8"?>
<!-- Generator: Adobe Illustrator 16.0.4, SVG Export Plug-In . SVG Version: 6.00 Build 0)  -->
<!DOCTYPE svg PUBLIC "-//W3C//DTD SVG 1.1//EN" "http://www.w3.org/Graphics/SVG/1.1/DTD/svg11.dtd">
<svg version="1.1" id="Ebene_1" xmlns:ev="http://www.w3.org/2001/xml-events"
	 xmlns="http://www.w3.org/2000/svg" xmlns:xlink="http://www.w3.org/1999/xlink" x="0px" y="0px" width="38px" height="40px"
	 viewBox="0 0 38 40" enable-background="new 0 0 38 40" xml:space="preserve">
<linearGradient id="SVGID_1_" gradientUnits="userSpaceOnUse" x1="14.1904" y1="11.3218" x2="14.1904" y2="12.3218" gradientTransform="matrix(27.28 0 0 -16.564 -363.7613 204.086)">
	<stop  offset="0" style="stop-color:#989898"/>
	<stop  offset="0.0953" style="stop-color:#9D9D9D"/>
	<stop  offset="0.6555" style="stop-color:#B5B5B5"/>
	<stop  offset="1" style="stop-color:#BEBEBE"/>
</linearGradient>
<path fill="url(#SVGID_1_)" d="M31.256,2.882c-0.621,0-1.214,0.101-1.773,0.282C27.971,1.24,25.632,0,23,0
	c-2.504,0-4.746,1.124-6.258,2.892c-0.07-0.002-0.137-0.01-0.208-0.01c-3.764,0-6.815,2.899-6.815,6.477
	c0,3.578,3.051,6.478,6.815,6.478c0.819,0,1.601-0.145,2.328-0.397c1.217,0.711,2.627,1.124,4.138,1.124
	c2.372,0,4.505-1.01,6.012-2.618c0.689,0.295,1.447,0.458,2.244,0.458c3.174,0,5.743-2.579,5.743-5.761
	C36.999,5.46,34.43,2.882,31.256,2.882z"/>
<linearGradient id="SVGID_2_" gradientUnits="userSpaceOnUse" x1="11.3159" y1="18.144" x2="11.3159" y2="19.144" gradientTransform="matrix(38 0 0 -23.076 -411 447.2584)">
	<stop  offset="0" style="stop-color:#989898"/>
	<stop  offset="0.0953" style="stop-color:#9D9D9D"/>
	<stop  offset="0.6555" style="stop-color:#B5B5B5"/>
	<stop  offset="1" style="stop-color:#BEBEBE"/>
</linearGradient>
<path fill="url(#SVGID_2_)" d="M30,9.502c-0.863,0-1.691,0.141-2.471,0.394c-2.105-2.68-5.363-4.407-9.029-4.407
	c-3.489,0-6.609,1.566-8.718,4.027C9.685,9.514,9.591,9.502,9.494,9.502C4.25,9.502,0,13.543,0,18.526
	c0,4.984,4.25,9.025,9.494,9.025c1.14,0,2.228-0.201,3.241-0.552c1.697,0.99,3.662,1.565,5.765,1.565
	c3.307,0,6.275-1.406,8.374-3.646c0.96,0.41,2.017,0.637,3.126,0.637c4.419,0,8-3.594,8-8.026C38,13.096,34.419,9.502,30,9.502z"/>
<path fill="#7AC4E9" d="M31.284,34.793c-1.438,0-2.604-1.169-2.604-2.611c0-1.44,1.385-3.1,2.604-4.697
	c1.155,1.647,2.604,3.257,2.604,4.697C33.889,33.624,32.723,34.793,31.284,34.793z M19.284,39.753c-1.813,0-3.284-1.474-3.284-3.29
	c0-1.818,1.745-3.908,3.284-5.923c1.456,2.078,3.282,4.104,3.282,5.923C22.566,38.279,21.098,39.753,19.284,39.753z"/>
</svg>
