<?xml version="1.0" encoding="utf-8"?>
<!-- Generator: Adobe Illustrator 16.0.4, SVG Export Plug-In . SVG Version: 6.00 Build 0)  -->
<!DOCTYPE svg PUBLIC "-//W3C//DTD SVG 1.1//EN" "http://www.w3.org/Graphics/SVG/1.1/DTD/svg11.dtd">
<svg version="1.1" id="Ebene_1" xmlns:ev="http://www.w3.org/2001/xml-events"
	 xmlns="http://www.w3.org/2000/svg" xmlns:xlink="http://www.w3.org/1999/xlink" x="0px" y="0px" width="38px" height="41px"
	 viewBox="0 0 38 41" enable-background="new 0 0 38 41" xml:space="preserve">
<linearGradient id="SVGID_1_" gradientUnits="userSpaceOnUse" x1="14.1904" y1="11.8521" x2="14.1904" y2="12.8521" gradientTransform="matrix(27.28 0 0 -16.564 -363.7613 212.868)">
	<stop  offset="0" style="stop-color:#989898"/>
	<stop  offset="0.0953" style="stop-color:#9D9D9D"/>
	<stop  offset="0.6555" style="stop-color:#B5B5B5"/>
	<stop  offset="1" style="stop-color:#BEBEBE"/>
</linearGradient>
<path fill="url(#SVGID_1_)" d="M31.256,2.882c-0.621,0-1.214,0.101-1.773,0.282C27.971,1.24,25.632,0,23,0
	c-2.504,0-4.746,1.124-6.258,2.892c-0.07-0.002-0.137-0.01-0.208-0.01c-3.764,0-6.815,2.899-6.815,6.477
	c0,3.578,3.051,6.478,6.815,6.478c0.819,0,1.601-0.145,2.328-0.397c1.217,0.711,2.627,1.124,4.138,1.124
	c2.372,0,4.505-1.01,6.012-2.618c0.689,0.295,1.447,0.458,2.244,0.458c3.174,0,5.743-2.579,5.743-5.761
	C36.999,5.46,34.43,2.882,31.256,2.882z"/>
<linearGradient id="SVGID_2_" gradientUnits="userSpaceOnUse" x1="11.3159" y1="18.666" x2="11.3159" y2="19.666" gradientTransform="matrix(38 0 0 -23.076 -411 459.2964)">
	<stop  offset="0" style="stop-color:#989898"/>
	<stop  offset="0.0953" style="stop-color:#9D9D9D"/>
	<stop  offset="0.6555" style="stop-color:#B5B5B5"/>
	<stop  offset="1" style="stop-color:#BEBEBE"/>
</linearGradient>
<path fill="url(#SVGID_2_)" d="M30,9.502c-0.863,0-1.691,0.141-2.471,0.394c-2.105-2.68-5.363-4.407-9.029-4.407
	c-3.489,0-6.609,1.566-8.718,4.027C9.685,9.514,9.591,9.502,9.494,9.502C4.25,9.502,0,13.543,0,18.526
	c0,4.984,4.25,9.025,9.494,9.025c1.14,0,2.228-0.201,3.241-0.552c1.697,0.99,3.662,1.565,5.765,1.565
	c3.307,0,6.275-1.406,8.374-3.646c0.96,0.41,2.017,0.637,3.126,0.637c4.419,0,8-3.594,8-8.026C38,13.096,34.419,9.502,30,9.502z"/>
<path fill="#B5CDD2" d="M23.882,33.602l-2.507,1.451l2.507,1.45c0.448,0.259,0.601,0.833,0.343,1.282
	c-0.26,0.449-0.832,0.604-1.279,0.344l-2.508-1.449v2.899c0,0.519-0.42,0.938-0.936,0.938c-0.519,0-0.937-0.42-0.937-0.938V36.68
	l-2.506,1.449c-0.449,0.262-1.021,0.105-1.28-0.344c-0.258-0.449-0.105-1.021,0.343-1.282l2.506-1.45l-2.506-1.449
	c-0.45-0.258-0.603-0.834-0.343-1.283c0.259-0.448,0.831-0.603,1.28-0.344l2.506,1.45v-2.899c-0.002-0.52,0.419-0.939,0.937-0.938
	c0.516,0,0.936,0.42,0.936,0.938v2.899l2.508-1.45c0.447-0.259,1.02-0.104,1.279,0.344C24.484,32.77,24.33,33.343,23.882,33.602z"/>
<path fill="#B5CDD2" d="M11.318,32.589l-2.003,0.427l1.371,1.525c0.246,0.273,0.223,0.693-0.049,0.939
	c-0.273,0.246-0.692,0.225-0.937-0.049l-1.371-1.527l-0.633,1.953c-0.113,0.351-0.487,0.541-0.836,0.428
	c-0.348-0.114-0.539-0.488-0.424-0.838l0.633-1.953L5.064,33.92c-0.359,0.079-0.711-0.15-0.788-0.51
	c-0.075-0.361,0.154-0.713,0.511-0.789l2.005-0.428l-1.371-1.525c-0.245-0.271-0.224-0.693,0.049-0.938
	c0.272-0.244,0.691-0.224,0.936,0.049l1.372,1.525l0.633-1.951c0.113-0.352,0.487-0.541,0.835-0.428
	c0.35,0.113,0.541,0.487,0.426,0.838l-0.633,1.952l2.004-0.426c0.358-0.078,0.71,0.153,0.787,0.511
	C11.907,32.161,11.679,32.514,11.318,32.589z"/>
</svg>
