<?xml version="1.0" encoding="utf-8"?>
<!-- Generator: Adobe Illustrator 16.0.4, SVG Export Plug-In . SVG Version: 6.00 Build 0)  -->
<!DOCTYPE svg PUBLIC "-//W3C//DTD SVG 1.1//EN" "http://www.w3.org/Graphics/SVG/1.1/DTD/svg11.dtd">
<svg version="1.1" id="Ebene_1" xmlns:ev="http://www.w3.org/2001/xml-events"
	 xmlns="http://www.w3.org/2000/svg" xmlns:xlink="http://www.w3.org/1999/xlink" x="0px" y="0px" width="38px" height="40px"
	 viewBox="0 0 38 40" enable-background="new 0 0 38 40" xml:space="preserve">
<linearGradient id="SVGID_1_" gradientUnits="userSpaceOnUse" x1="14.2104" y1="11.3247" x2="14.2104" y2="12.3247" gradientTransform="matrix(27.228 0 0 -16.566 -363.5168 204.159)">
	<stop  offset="0" style="stop-color:#989898"/>
	<stop  offset="0.0953" style="stop-color:#9D9D9D"/>
	<stop  offset="0.6555" style="stop-color:#B5B5B5"/>
	<stop  offset="1" style="stop-color:#BEBEBE"/>
</linearGradient>
<path fill="url(#SVGID_1_)" d="M31.281,2.881c-0.619,0-1.211,0.101-1.77,0.282C28.003,1.239,25.668,0,23.041,0
	c-2.499,0-4.736,1.123-6.246,2.891c-0.069-0.002-0.137-0.01-0.207-0.01c-3.757,0-6.802,2.9-6.802,6.479
	c0,3.578,3.045,6.479,6.802,6.479c0.817,0,1.598-0.145,2.323-0.397c1.215,0.711,2.622,1.124,4.13,1.124
	c2.368,0,4.497-1.01,6.001-2.618c0.687,0.295,1.444,0.457,2.239,0.457c3.168,0,5.732-2.579,5.732-5.762S34.449,2.881,31.281,2.881z"
	/>
<linearGradient id="SVGID_2_" gradientUnits="userSpaceOnUse" x1="11.3159" y1="18.1777" x2="11.3159" y2="19.1777" gradientTransform="matrix(38 0 0 -23.119 -411 448.9685)">
	<stop  offset="0" style="stop-color:#989898"/>
	<stop  offset="0.0953" style="stop-color:#9D9D9D"/>
	<stop  offset="0.6555" style="stop-color:#B5B5B5"/>
	<stop  offset="1" style="stop-color:#BEBEBE"/>
</linearGradient>
<path fill="url(#SVGID_2_)" d="M30,9.639c-0.863,0-1.691,0.141-2.471,0.394c-2.105-2.685-5.363-4.415-9.029-4.415
	c-3.489,0-6.609,1.569-8.718,4.034C9.685,9.65,9.591,9.639,9.494,9.639C4.25,9.639,0,13.687,0,18.679
	c0,4.994,4.25,9.042,9.494,9.042c1.14,0,2.228-0.201,3.241-0.553c1.697,0.992,3.662,1.568,5.765,1.568
	c3.307,0,6.275-1.408,8.374-3.653c0.96,0.411,2.017,0.64,3.126,0.64c4.419,0,8-3.602,8-8.042S34.419,9.639,30,9.639z"/>
<path fill="#7AC4E9" d="M31.284,20.941c-1.438,0-2.604-1.173-2.604-2.62c0-1.446,1.383-3.11,2.604-4.713
	c1.155,1.653,2.604,3.267,2.604,4.713C33.889,19.768,32.723,20.941,31.284,20.941z M19.284,25.917c-1.813,0-3.284-1.478-3.284-3.301
	s1.745-3.92,3.284-5.941c1.456,2.084,3.282,4.118,3.282,5.941S21.098,25.917,19.284,25.917z"/>
<path fill="#7AC4E9" d="M31.284,35.014c-1.438,0-2.604-1.174-2.604-2.619s1.383-3.109,2.604-4.713
	c1.155,1.653,2.604,3.268,2.604,4.713S32.723,35.014,31.284,35.014z M19.284,39.989c-1.813,0-3.284-1.479-3.284-3.302
	c0-1.822,1.745-3.918,3.284-5.94c1.456,2.084,3.282,4.118,3.282,5.94C22.566,38.511,21.098,39.989,19.284,39.989z"/>
</svg>
