<?xml version="1.0" encoding="utf-8"?>
<!-- Generator: Adobe Illustrator 16.0.4, SVG Export Plug-In . SVG Version: 6.00 Build 0)  -->
<!DOCTYPE svg PUBLIC "-//W3C//DTD SVG 1.1//EN" "http://www.w3.org/Graphics/SVG/1.1/DTD/svg11.dtd">
<svg version="1.1" id="Ebene_1" xmlns:ev="http://www.w3.org/2001/xml-events"
	 xmlns="http://www.w3.org/2000/svg" xmlns:xlink="http://www.w3.org/1999/xlink" x="0px" y="0px" width="38px" height="39px"
	 viewBox="0 0 38 39" enable-background="new 0 0 38 39" xml:space="preserve">
<linearGradient id="SVGID_1_" gradientUnits="userSpaceOnUse" x1="14.21" y1="10.8779" x2="14.21" y2="11.8779" gradientTransform="matrix(27.228 0 0 -16.624 -363.5168 197.464)">
	<stop  offset="0" style="stop-color:#989898"/>
	<stop  offset="0.0953" style="stop-color:#9D9D9D"/>
	<stop  offset="0.6555" style="stop-color:#B5B5B5"/>
	<stop  offset="1" style="stop-color:#BEBEBE"/>
</linearGradient>
<path fill="url(#SVGID_1_)" d="M31.281,2.892c-0.619,0-1.211,0.101-1.77,0.283C28.003,1.244,25.668,0,23.041,0
	c-2.499,0-4.736,1.128-6.246,2.901c-0.069-0.002-0.137-0.009-0.207-0.009c-3.757,0-6.802,2.91-6.802,6.501
	c0,3.591,3.045,6.502,6.802,6.502c0.817,0,1.598-0.145,2.323-0.398c1.215,0.713,2.622,1.127,4.13,1.127
	c2.368,0,4.497-1.013,6.001-2.627c0.687,0.296,1.444,0.459,2.239,0.459c3.168,0,5.732-2.588,5.732-5.782
	C37.014,5.48,34.449,2.892,31.281,2.892z"/>
<linearGradient id="SVGID_2_" gradientUnits="userSpaceOnUse" x1="11.3159" y1="17.7163" x2="11.3159" y2="18.7163" gradientTransform="matrix(38 0 0 -23.2 -411 439.8406)">
	<stop  offset="0" style="stop-color:#989898"/>
	<stop  offset="0.0953" style="stop-color:#9D9D9D"/>
	<stop  offset="0.6555" style="stop-color:#B5B5B5"/>
	<stop  offset="1" style="stop-color:#BEBEBE"/>
</linearGradient>
<path fill="url(#SVGID_2_)" d="M30,9.673c-0.863,0-1.691,0.142-2.471,0.396c-2.105-2.695-5.363-4.431-9.029-4.431
	c-3.489,0-6.609,1.574-8.718,4.049C9.685,9.685,9.591,9.673,9.494,9.673C4.25,9.673,0,13.735,0,18.745
	c0,5.011,4.25,9.073,9.494,9.073c1.14,0,2.228-0.201,3.241-0.555c1.697,0.995,3.662,1.574,5.765,1.574
	c3.307,0,6.275-1.414,8.374-3.666c0.96,0.411,2.017,0.641,3.126,0.641c4.419,0,8-3.613,8-8.07C38,13.286,34.419,9.673,30,9.673z"/>
<path fill="#7AC4E9" d="M31.284,34.007c-1.438,0-2.604-1.173-2.604-2.618s1.383-3.109,2.604-4.713
	c1.155,1.653,2.604,3.268,2.604,4.713S32.723,34.007,31.284,34.007z M19.284,38.982c-1.813,0-3.284-1.478-3.284-3.301
	c0-1.822,1.745-3.918,3.284-5.94c1.456,2.084,3.282,4.118,3.282,5.94C22.566,37.505,21.098,38.982,19.284,38.982z"/>
<path fill="#7AC4E9" d="M33.889,17.316c0,1.446-1.166,2.619-2.604,2.619s-2.604-1.173-2.604-2.619c0-1.446,1.383-3.11,2.604-4.713
	C32.439,14.256,33.889,15.87,33.889,17.316z"/>
<path fill="#B5CDD2" d="M11.318,32.797l-2.003,0.428l1.371,1.529c0.246,0.275,0.223,0.695-0.049,0.943
	c-0.273,0.246-0.692,0.225-0.937-0.049l-1.371-1.531l-0.633,1.958c-0.113,0.352-0.487,0.542-0.836,0.428
	c-0.348-0.112-0.539-0.487-0.424-0.84l0.633-1.959l-2.006,0.428C4.705,34.21,4.354,33.98,4.276,33.62
	c-0.075-0.362,0.154-0.716,0.511-0.792L6.792,32.4l-1.371-1.531c-0.245-0.273-0.224-0.695,0.049-0.939
	c0.272-0.246,0.691-0.225,0.936,0.049l1.372,1.53l0.633-1.959c0.113-0.352,0.487-0.542,0.835-0.428
	c0.35,0.114,0.541,0.489,0.426,0.84l-0.633,1.959l2.004-0.428c0.358-0.078,0.71,0.153,0.787,0.513
	C11.907,32.367,11.679,32.721,11.318,32.797z"/>
<path fill="#B5CDD2" d="M23.882,19.024l-2.507,1.451l2.507,1.45c0.448,0.259,0.601,0.833,0.343,1.282
	c-0.26,0.45-0.832,0.604-1.279,0.344l-2.508-1.449v2.899c0,0.519-0.42,0.938-0.936,0.938c-0.519,0-0.937-0.42-0.937-0.938v-2.899
	l-2.506,1.449c-0.449,0.262-1.021,0.106-1.28-0.344c-0.258-0.449-0.105-1.021,0.343-1.282l2.506-1.45l-2.506-1.45
	c-0.45-0.258-0.603-0.833-0.343-1.282c0.259-0.449,0.831-0.603,1.28-0.344l2.506,1.45V15.95c-0.002-0.52,0.419-0.94,0.937-0.939
	c0.516,0,0.936,0.42,0.936,0.939v2.899l2.508-1.45c0.447-0.259,1.02-0.105,1.279,0.343C24.484,18.192,24.33,18.765,23.882,19.024z"
	/>
<path fill="#B5CDD2" d="M11.318,19.011l-2.003,0.427l1.371,1.525c0.246,0.273,0.223,0.693-0.049,0.939
	c-0.273,0.246-0.692,0.225-0.937-0.049l-1.371-1.526l-0.633,1.952C7.583,22.63,7.209,22.82,6.86,22.707
	c-0.348-0.114-0.539-0.488-0.424-0.838l0.633-1.953l-2.005,0.426c-0.359,0.079-0.71-0.15-0.788-0.51
	c-0.075-0.361,0.154-0.713,0.511-0.789l2.005-0.427L5.421,17.09c-0.245-0.272-0.224-0.693,0.049-0.938
	c0.272-0.244,0.691-0.223,0.936,0.049l1.372,1.526l0.633-1.952c0.113-0.351,0.487-0.541,0.835-0.427
	c0.35,0.113,0.541,0.487,0.426,0.837l-0.633,1.953l2.004-0.426c0.358-0.078,0.71,0.153,0.787,0.511
	C11.907,18.583,11.679,18.935,11.318,19.011z"/>
</svg>
